<?xml version="1.0" encoding="UTF-8"?>
<svg width="104px" height="112px" viewBox="0 0 104 112" version="1.1" xmlns="http://www.w3.org/2000/svg" xmlns:xlink="http://www.w3.org/1999/xlink">
    <!-- Generator: Sketch 43.2 (39069) - http://www.bohemiancoding.com/sketch -->
    <title>icon-enter-white</title>
    <desc>Created with Sketch.</desc>
    <defs></defs>
    <g id="Page-1" stroke="none" stroke-width="1" fill="none" fill-rule="evenodd">
        <g id="icon-enter-white" fill="#F9FAFC">
            <path d="M93.6626173,10 C95.8223005,10 97.6613781,10.7592522 99.1799054,12.2777795 C100.698433,13.7963067 101.457685,15.6353843 101.457685,17.7950675 L101.457685,80.0037553 C101.457685,81.9272231 100.841847,83.8169175 99.6101526,85.6728952 C98.3784583,87.528873 96.86839,88.8280379 95.0799023,89.570429 L68.3539567,101.060561 C67.881526,101.263031 67.4175386,101.414882 66.9619804,101.516117 C66.5064222,101.617352 66.0424347,101.667969 65.5700041,101.667969 C65.0300833,101.667969 64.4986067,101.592044 63.9755584,101.440191 C63.4525102,101.288338 62.9716504,101.060562 62.5329648,100.756857 C61.7230836,100.216936 61.0903734,99.4914285 60.6348152,98.5803122 C60.1792571,97.6691958 59.9514814,96.6568595 59.9514814,95.5432729 L59.9514814,87.7482054 L46.9934472,87.7482054 C44.867509,87.7482054 43.0453037,86.9889532 41.5267765,85.470426 C40.0082492,83.9518987 39.248997,82.1296934 39.248997,80.0037553 L39.248997,64.4136203 C39.248997,63.7049743 39.5020811,63.0975725 40.0082568,62.5913968 C40.5144326,62.085221 41.1218344,61.8321369 41.8304804,61.8321369 C42.5391264,61.8321369 43.1465282,62.085221 43.652704,62.5913968 C44.1588797,63.0975725 44.4119638,63.7049743 44.4119638,64.4136203 L44.4119638,80.0037553 C44.4119638,80.7124013 44.6650479,81.3198031 45.1712236,81.8259788 C45.6773993,82.3321546 46.2848011,82.5852386 46.9934472,82.5852386 L59.9514814,82.5852386 L59.9514814,33.3345851 C59.9514814,31.4111173 60.5673193,29.5214228 61.7990136,27.6654451 C63.0307079,25.8094674 64.5407762,24.4934302 66.3292639,23.7172941 L86.2218711,15.2135841 L46.9934472,15.2135841 C46.2848011,15.2135841 45.6773993,15.4666682 45.1712236,15.9728439 C44.6650479,16.4790196 44.4119638,17.0864214 44.4119638,17.7950675 L44.4119638,33.3345851 C44.4119638,34.0432311 44.1588797,34.6506329 43.652704,35.1568087 C43.1465282,35.6629844 42.5391264,35.9160685 41.8304804,35.9160685 C41.1218344,35.9160685 40.5144326,35.6629844 40.0082568,35.1568087 C39.5020811,34.6506329 39.248997,34.0432311 39.248997,33.3345851 L39.248997,17.7950675 C39.248997,15.6353843 40.0082492,13.7963067 41.5267765,12.2777795 C43.0453037,10.7592522 44.867509,10 46.9934472,10 L93.6626173,10 Z M96.2441007,80.0037553 L96.2441007,17.7950675 C96.2441007,17.5925972 96.2187923,17.3901299 96.1681747,17.1876596 C96.1175572,16.9851893 96.0585042,16.7995943 95.9910141,16.6308691 L68.3539567,28.4753222 C67.5103305,28.8465178 66.7679505,29.5214087 66.1267946,30.5000151 C65.4856386,31.4786215 65.1650655,32.4234687 65.1650655,33.3345851 L65.1650655,95.5432729 C65.1650655,95.8132333 65.1903739,96.0241367 65.2409915,96.1759894 C65.291609,96.3278421 65.3337897,96.4206396 65.3675348,96.4543847 L65.6965474,96.4543847 C65.8484001,96.4543847 66.0593035,96.4037678 66.3292639,96.3025327 L93.0552095,84.8124008 C93.8988357,84.4749503 94.6412157,83.8169317 95.2823716,82.8383253 C95.9235276,81.8597188 96.2441007,80.9148716 96.2441007,80.0037553 Z M46.2341873,47.0518791 C46.7403631,47.5580549 46.9934472,48.1654567 46.9934472,48.8741027 C46.9934472,49.5827487 46.7403631,50.1901505 46.2341873,50.6963263 L30.6946697,66.2864612 C30.4584544,66.5226766 30.1800619,66.7082715 29.8594839,66.8432517 C29.538906,66.9782319 29.2098967,67.045721 28.8724462,67.045721 C28.5349957,67.045721 28.2059864,66.9782319 27.8854084,66.8432517 C27.5648304,66.7082715 27.2864379,66.5226766 27.0502226,66.2864612 C26.5440469,65.7802855 26.2909628,65.1644475 26.2909628,64.438929 C26.2909628,63.7134104 26.5440469,63.0975725 27.0502226,62.5913968 L38.1860333,51.4555861 L5.53786107,51.4555861 C4.82921503,51.4555861 4.22181325,51.202502 3.71563751,50.6963263 C3.20946177,50.1901505 2.95637769,49.5827487 2.95637769,48.8741027 C2.95637769,48.1654567 3.20946177,47.5580549 3.71563751,47.0518791 C4.22181325,46.5457034 4.82921503,46.2926193 5.53786107,46.2926193 L38.1860333,46.2926193 L27.0502226,35.1568087 C26.5440469,34.6506329 26.2909628,34.0432311 26.2909628,33.3345851 C26.2909628,32.625939 26.5440469,32.0185373 27.0502226,31.5123615 C27.5563983,31.0061858 28.1638001,30.7531017 28.8724462,30.7531017 C29.5810922,30.7531017 30.188494,31.0061858 30.6946697,31.5123615 L46.2341873,47.0518791 Z" id="enter"></path>
        </g>
    </g>
</svg>