<?xml version="1.0" encoding="UTF-8"?>
<svg width="104px" height="112px" viewBox="0 0 104 112" version="1.1" xmlns="http://www.w3.org/2000/svg" xmlns:xlink="http://www.w3.org/1999/xlink">
    <!-- Generator: Sketch 43.2 (39069) - http://www.bohemiancoding.com/sketch -->
    <title>icon-check-white</title>
    <desc>Created with Sketch.</desc>
    <defs></defs>
    <g id="Page-1" stroke="none" stroke-width="1" fill="none" fill-rule="evenodd">
        <g id="icon-check-white" fill="#F9FAFC">
            <path d="M33.7623881,93.0337524 C33.1625593,93.0337524 32.577735,92.9287839 32.0078977,92.7188439 C31.4380603,92.5089038 30.943209,92.1640074 30.5233289,91.6841444 L2.90135113,64.0621666 C2.00160795,63.1624235 1.5517431,62.0827478 1.5517431,60.8231074 C1.5517431,59.5634669 2.00160795,58.4837913 2.90135113,57.5840481 C3.80109432,56.6843049 4.88076995,56.2344401 6.14041041,56.2344401 C7.40005087,56.2344401 8.4797265,56.6843049 9.37946969,57.5840481 L33.7623881,81.9669665 L95.0345928,20.6947619 C95.934336,19.7950187 97.0140116,19.3451538 98.2736521,19.3451538 C99.5332926,19.3451538 100.612968,19.7950187 101.512711,20.6947619 C102.412455,21.5945051 102.862319,22.6741807 102.862319,23.9338212 C102.862319,25.1934616 102.412455,26.2731372 101.512711,27.1728804 L37.0014474,91.6841444 C36.5815673,92.1640074 36.0867159,92.5089038 35.5168786,92.7188439 C34.9470412,92.9287839 34.3622169,93.0337524 33.7623881,93.0337524 Z" id="checkmark"></path>
        </g>
    </g>
</svg>