<?xml version="1.0" encoding="UTF-8"?>
<svg width="104px" height="112px" viewBox="0 0 104 112" version="1.1" xmlns="http://www.w3.org/2000/svg" xmlns:xlink="http://www.w3.org/1999/xlink">
    <!-- Generator: Sketch 43.2 (39069) - http://www.bohemiancoding.com/sketch -->
    <title>icon-cross-white</title>
    <desc>Created with Sketch.</desc>
    <defs></defs>
    <g id="Page-1" stroke="none" stroke-width="1" fill="none" fill-rule="evenodd">
        <g id="icon-cross-white" fill="#F9FAFC">
            <path d="M57.7582351,56.4335967 L100.73429,13.4575419 C101.47654,12.715292 101.847659,11.8246055 101.847659,10.7854556 C101.847659,9.74630573 101.47654,8.8556192 100.73429,8.11336929 C99.99204,7.37111939 99.0889828,7 98.0250913,7 C96.9611997,7 96.0581426,7.37111939 95.3158927,8.11336929 L52.4140625,51.0151995 L9.51223234,8.11336929 C8.76998244,7.37111939 7.86692526,7 6.80303373,7 C5.73914219,7 4.83608502,7.37111939 4.09383511,8.11336929 C3.3515852,8.8556192 2.98046582,9.74630573 2.98046582,10.7854556 C2.98046582,11.8246055 3.3515852,12.715292 4.09383511,13.4575419 L47.0698899,56.4335967 L4.09383511,99.3354268 C3.3515852,100.077677 2.98046582,100.968363 2.98046582,102.007513 C2.98046582,103.046663 3.3515852,103.93735 4.09383511,104.679599 C4.48970173,105.075466 4.92267435,105.359991 5.39276595,105.533183 C5.86285756,105.706374 6.34531277,105.792969 6.84014604,105.792969 C7.28549598,105.792969 7.74320989,105.706374 8.2133015,105.533183 C8.68339311,105.359991 9.11636573,105.075466 9.51223234,104.679599 L52.4140625,61.7777693 L95.3158927,104.679599 C95.7117593,105.075466 96.1447319,105.359991 96.6148235,105.533183 C97.0849151,105.706374 97.542629,105.792969 97.987979,105.792969 C98.4828122,105.792969 98.9652674,105.706374 99.435359,105.533183 C99.9054507,105.359991 100.338423,105.075466 100.73429,104.679599 C101.47654,103.93735 101.847659,103.046663 101.847659,102.007513 C101.847659,100.968363 101.47654,100.077677 100.73429,99.3354268 L57.7582351,56.4335967 Z" id="cross"></path>
        </g>
    </g>
</svg>