<?xml version="1.0" encoding="UTF-8"?>
<svg width="247px" height="247px" viewBox="0 0 247 247" version="1.1" xmlns="http://www.w3.org/2000/svg" xmlns:xlink="http://www.w3.org/1999/xlink">
    <!-- Generator: Sketch 43.2 (39069) - http://www.bohemiancoding.com/sketch -->
    <title>Group</title>
    <desc>Created with Sketch.</desc>
    <defs>
        <linearGradient x1="18.7700557%" y1="19.1715881%" x2="100%" y2="100%" id="linearGradient-1">
            <stop stop-color="#1C2231" offset="0%"></stop>
            <stop stop-color="#4E9ADA" offset="100%"></stop>
        </linearGradient>
        <linearGradient x1="31.6263672%" y1="33.2208643%" x2="100%" y2="100%" id="linearGradient-2">
            <stop stop-color="#1C2231" offset="0%"></stop>
            <stop stop-color="#4E9ADA" offset="100%"></stop>
        </linearGradient>
    </defs>
    <g id="Page-1" stroke="none" stroke-width="1" fill="none" fill-rule="evenodd">
        <g id="Group">
            <path d="M15.427574,120.852426 C18.497574,131.852426 20.203574,142.668426 20.520574,153.292426 C65.248574,185.089426 100.834574,207.077426 126.332574,219.197426 C139.220574,225.324426 149.595574,228.881426 156.645574,230.073426 C163.695574,231.266426 166.222574,229.953426 166.613574,229.573426 C167.005574,229.193426 168.257574,227.113426 167.051574,220.353426 C165.844574,213.597426 162.199574,203.513426 155.863574,190.917426 C143.463574,166.270426 120.983574,131.811426 88.363574,88.354426 C76.441574,88.066426 64.395574,85.744426 52.083574,81.574426 C49.708574,101.240426 34.671574,117.152426 15.427574,120.852426 Z" id="Path-Copy" fill="url(#linearGradient-1)" transform="translate(91.495467, 156.067893) rotate(-90.000000) translate(-91.495467, -156.067893) "></path>
            <path d="M157.585943,0.100057406 C141.680943,11.5130574 125.948943,18.5040574 110.118943,21.6000574 C139.381943,61.1700574 160.045943,93.0430574 172.398943,117.600057 C179.202943,131.123057 183.560943,142.388057 185.305943,152.162057 C187.050943,161.936057 186.181943,171.579057 179.492943,178.068057 C172.804943,184.558057 163.276943,185.276057 153.367943,183.600057 C143.459943,181.924057 131.973943,177.720057 118.180943,171.162057 C92.8129426,159.104057 59.8039426,138.868057 18.9609426,110.256057 C16.3149426,126.603057 10.0569426,142.466057 -0.0990574059,157.786057 C63.9709426,201.366057 163.396943,241.569057 246.368943,246.569057 C249.982943,161.322057 204.040943,65.5450574 157.586943,0.0990574059 L157.585943,0.100057406 Z" id="Shape-Copy-2" fill="url(#linearGradient-2)" fill-rule="nonzero" transform="translate(123.235000, 123.334057) rotate(-90.000000) translate(-123.235000, -123.334057) "></path>
        </g>
    </g>
</svg>