<?xml version="1.0" encoding="UTF-8"?>
<svg width="104px" height="112px" viewBox="0 0 104 112" version="1.1" xmlns="http://www.w3.org/2000/svg" xmlns:xlink="http://www.w3.org/1999/xlink">
    <!-- Generator: Sketch 43.2 (39069) - http://www.bohemiancoding.com/sketch -->
    <title>icon-arrow-right-white</title>
    <desc>Created with Sketch.</desc>
    <defs></defs>
    <g id="Page-1" stroke="none" stroke-width="1" fill="none" fill-rule="evenodd">
        <g id="icon-arrow-right-white" fill="#F9FAFC">
            <path d="M100.857274,54.496264 L68.8398614,22.5309125 C68.3192504,22.0103016 67.6945267,21.75 66.9656714,21.75 C66.2368161,21.75 65.6120923,22.0103016 65.0914814,22.5309125 C64.5708704,23.0515234 64.3105689,23.6762472 64.3105689,24.4051025 C64.3105689,25.1339578 64.5708704,25.7586815 65.0914814,26.2792925 L92.5275404,53.7153515 L5.69007091,53.7153515 C4.9265082,53.7153515 4.28443102,53.975653 3.76382008,54.496264 C3.24320915,55.0168749 2.98290759,55.6589521 2.98290759,56.4225148 C2.98290759,57.1513701 3.24320915,57.7760938 3.76382008,58.2967048 C4.28443102,58.8173157 4.9265082,59.0776173 5.69007091,59.0776173 L92.5275404,59.0776173 L65.0914814,86.5136763 C64.5708704,87.0342872 64.3105689,87.659011 64.3105689,88.3878663 C64.3105689,89.1167216 64.5708704,89.7414453 65.0914814,90.2620563 C65.3344332,90.5397154 65.6207649,90.73928 65.9504851,90.8607558 C66.2802054,90.9822317 66.6185974,91.0429688 66.9656714,91.0429688 C67.3127453,91.0429688 67.6511374,90.9822317 67.9808576,90.8607558 C68.3105779,90.73928 68.5969096,90.5397154 68.8398614,90.2620563 L100.857274,58.2967048 C101.377885,57.7760938 101.638186,57.1426934 101.638186,56.3964844 C101.638186,55.6502754 101.377885,55.0168749 100.857274,54.496264 Z" id="arrow-right"></path>
        </g>
    </g>
</svg>